<?xml version="1.0" encoding="UTF-8"?>
<svg id="Capa_2" data-name="Capa 2" xmlns="http://www.w3.org/2000/svg" viewBox="0 0 600.78 102.13">
  <defs>
    <style>
      .cls-1 {
        fill: #000050;
      }

      .cls-2 {
        fill: #5466fd;
      }
    </style>
  </defs>
  <g id="Capa_1-2" data-name="Capa 1">
    <g>
      <g>
        <path class="cls-1" d="M25.83,95.39c-7.94-4.49-14.23-10.63-18.87-18.42C2.32,69.18,0,60.55,0,51.06s2.32-18.12,6.96-25.91S17.89,11.23,25.83,6.74C33.77,2.25,42.48,0,51.96,0s17.34,2.05,24.78,6.14c7.44,4.09,13.3,9.64,17.6,16.62l-11.98,8.83c-3.5-5.49-7.79-9.71-12.88-12.65-5.09-2.94-10.88-4.42-17.37-4.42s-12.75,1.57-18.19,4.72c-5.44,3.14-9.71,7.51-12.8,13.1-3.1,5.59-4.64,11.83-4.64,18.72s1.55,13.13,4.64,18.72c3.09,5.59,7.36,9.96,12.8,13.1,5.44,3.14,11.5,4.72,18.19,4.72s12.28-1.47,17.37-4.42c5.09-2.94,9.38-7.16,12.88-12.65l11.98,8.83c-4.19,6.99-10.01,12.53-17.45,16.62-7.44,4.09-15.75,6.14-24.93,6.14s-18.19-2.25-26.13-6.74Z"/>
        <path class="cls-1" d="M121.07,95.39c-7.94-4.49-14.2-10.63-18.79-18.42-4.59-7.79-6.89-16.42-6.89-25.91s2.32-18.12,6.96-25.91,10.91-13.93,18.79-18.42c7.89-4.49,16.57-6.74,26.06-6.74s18.07,2.25,26.06,6.74c7.99,4.49,14.3,10.63,18.94,18.42s6.96,16.42,6.96,25.91-2.32,18.12-6.96,25.91c-4.64,7.79-10.96,13.93-18.94,18.42-7.99,4.49-16.67,6.74-26.06,6.74s-18.19-2.25-26.13-6.74ZM165.47,82.88c5.39-3.15,9.63-7.51,12.73-13.1,3.09-5.59,4.64-11.88,4.64-18.87s-1.55-12.98-4.64-18.57c-3.1-5.59-7.34-9.96-12.73-13.1-5.39-3.14-11.43-4.72-18.12-4.72s-12.88,1.57-18.27,4.72c-5.39,3.14-9.61,7.49-12.65,13.03-3.05,5.54-4.57,11.76-4.57,18.64s1.52,13.28,4.57,18.87c3.04,5.59,7.26,9.96,12.65,13.1,5.39,3.14,11.48,4.72,18.27,4.72s12.73-1.57,18.12-4.72Z"/>
        <path class="cls-1" d="M300.84,0v100.48h-15.87v-62l-28.3,37.14h-5.39l-28.45-37.29v62.14h-15.87V0h5.54l41.48,55.26L295.45,0h5.39Z"/>
        <path class="cls-1" d="M314.47,1.65h36.09c6.59,0,12.43,1.27,17.52,3.82s9.03,6.12,11.83,10.71c2.79,4.59,4.19,9.83,4.19,15.72s-1.4,11.13-4.19,15.72c-2.8,4.59-6.74,8.19-11.83,10.78-5.09,2.6-10.93,3.89-17.52,3.89h-20.22v38.19h-15.87V1.65ZM350.26,48.07c5.59,0,9.91-1.46,12.95-4.38,3.04-2.92,4.57-6.8,4.57-11.65s-1.52-8.75-4.57-11.72c-3.05-2.97-7.36-4.45-12.95-4.45h-19.92v32.2h19.92Z"/>
        <path class="cls-1" d="M437.86,84.01h-44.47l-7.04,16.47h-16.92L413,0h5.39l43.58,100.48h-17.07l-7.04-16.47ZM415.7,29.5l-16.62,40.88h33.09l-16.47-40.88Z"/>
        <path class="cls-1" d="M474.1,96.44c-6.49-3.79-11.63-9.03-15.42-15.72l11.23-8.54c3.29,4.79,7.01,8.61,11.16,11.46,4.14,2.85,9.06,4.27,14.75,4.27,5.09,0,9.21-1.25,12.35-3.74,3.14-2.49,4.72-5.84,4.72-10.03,0-3.49-1.12-6.24-3.37-8.24-2.25-2-5.97-4.19-11.16-6.59l-10.93-5.09c-7.19-3.29-12.83-7.04-16.92-11.23-4.09-4.19-6.14-9.58-6.14-16.17,0-5.29,1.4-9.98,4.19-14.08,2.79-4.09,6.56-7.24,11.31-9.43,4.74-2.19,9.96-3.29,15.65-3.29,6.99,0,13.28,1.62,18.87,4.87,5.59,3.25,9.93,7.51,13.03,12.8l-11.08,8.54c-2.6-3.89-5.67-6.86-9.21-8.91-3.54-2.04-7.41-3.07-11.61-3.07s-7.74,1.02-10.63,3.07c-2.9,2.05-4.34,5.02-4.34,8.91,0,2.4.55,4.39,1.65,5.99,1.1,1.6,2.54,2.92,4.34,3.97,1.8,1.05,4.39,2.42,7.79,4.12l11.08,5.09c7.99,3.69,13.93,7.69,17.82,11.98,3.89,4.29,5.84,9.68,5.84,16.17,0,5.69-1.42,10.71-4.27,15.05-2.85,4.34-6.79,7.69-11.83,10.03-5.04,2.34-10.71,3.52-17,3.52-8.09,0-15.38-1.9-21.86-5.69Z"/>
        <path class="cls-1" d="M545.83,96.44c-6.49-3.79-11.63-9.03-15.42-15.72l11.23-8.54c3.29,4.79,7.01,8.61,11.16,11.46,4.14,2.85,9.06,4.27,14.75,4.27,5.09,0,9.21-1.25,12.35-3.74,3.14-2.49,4.72-5.84,4.72-10.03,0-3.49-1.12-6.24-3.37-8.24-2.25-2-5.97-4.19-11.16-6.59l-10.93-5.09c-7.19-3.29-12.83-7.04-16.92-11.23-4.09-4.19-6.14-9.58-6.14-16.17,0-5.29,1.4-9.98,4.19-14.08,2.79-4.09,6.56-7.24,11.31-9.43,4.74-2.19,9.96-3.29,15.65-3.29,6.99,0,13.28,1.62,18.87,4.87,5.59,3.25,9.93,7.51,13.03,12.8l-11.08,8.54c-2.6-3.89-5.67-6.86-9.21-8.91-3.54-2.04-7.41-3.07-11.61-3.07s-7.74,1.02-10.63,3.07c-2.9,2.05-4.34,5.02-4.34,8.91,0,2.4.55,4.39,1.65,5.99,1.1,1.6,2.54,2.92,4.34,3.97,1.8,1.05,4.39,2.42,7.79,4.12l11.08,5.09c7.99,3.69,13.93,7.69,17.82,11.98,3.89,4.29,5.84,9.68,5.84,16.17,0,5.69-1.42,10.71-4.27,15.05-2.85,4.34-6.79,7.69-11.83,10.03-5.04,2.34-10.71,3.52-17,3.52-8.09,0-15.38-1.9-21.86-5.69Z"/>
      </g>
      <path class="cls-2" d="M144.48,71.22l-.3-18.75-18.75-3.02c-.38-.06-1.89-.88-1.68-1.2l1.22-1.89,38.67-13.54,1.94-.13c.44-.03.65,1.52.71,2.12l-18.78,37.56-1.8.83c-.35.16-1.22-1.43-1.23-1.97Z"/>
    </g>
  </g>
</svg>